# xmcd CD database file
#
# Track frame offsets:
#	150
#	17152
#	34950
#	53446
#	75495
#	90472
#	118978
#	139314
#	150378
#	168847
#	180106
#	201110
#	220127
#	233337
#	256903
#
# Disc length: 4432 seconds
#
# Revision: 0
# Processed by: cddbd v1.5.2PL0 Copyright (c) Steve Scherf et al.
# Submitted via: CDex 1.51
#
DISCID=b1114e0f
DTITLE=WILSON E SORAYA - especial
DYEAR=2006
DGENRE=Salsa
TTITLE0=WILSON E SORAYA - TÔ INDO EMBORA
TTITLE1=WILSON E SORAYA - BANG BANG
TTITLE2=WILSON E SORAYA - DE VEZ EM QUANDO VOLTA
TTITLE3=WILSON E SORAYA - TOTAL ECLIPSE DO AMOR
TTITLE4=WILSON E SORAYA - MAIS UMA NOITE CO VOCÊ
TTITLE5=WILSON E SORAYA - AMARGURADO FIU DE CABELO
TTITLE6=WILSON E SORAYA - SÓ APRENDI A AMAR VOCÊ
TTITLE7=WILSON E SORAYA - 60 DIAS APAIXONADO
TTITLE8=WILSON E SORAYA - PRA SEMPRE VOU TE AMAR
TTITLE9=WILSON E SORAYA - BICA D´AGUA
TTITLE10=WILSON E SORAYA - FUI EU
TTITLE11=WILSON E SORAYA - COR DE CAMELO
TTITLE12=WILSON E SORAYA - CAWBOY DESARRUMADO
TTITLE13=WILSON E SORAYA - O BEBIM E A MULA
TTITLE14=WILSON E SORAYA - 
EXTD=YEAR: 2006
EXTT0=
EXTT1=
EXTT2=
EXTT3=
EXTT4=
EXTT5=
EXTT6=
EXTT7=
EXTT8=
EXTT9=
EXTT10=
EXTT11=
EXTT12=
EXTT13=
EXTT14=
PLAYORDER=
